<svg xmlns="http://www.w3.org/2000/svg" width="500" height="500" viewBox="0 0 500 500"><title>Never-more-ready-US</title><path d="M499.8 401.8c-7.1-7.6-16.7-12.1-25.1-17.9-10-6.8-17.9-15-22.8-25.9-2.6-5.8-10.8-.8-8.4 5 6.6 15.8 21.4 28.8 36.8 38.3-12.9-1.3-26.1-1.9-38.8-4.3-18.5-3.5-36.5-9.8-52.6-19.5-36.4-21.6-51-60.7-50.8-101.5a1.5 1.5 0 0 0-3.1 0c-2.7 41 10.8 78.2 44.9 102.5 16.3 11.6 35.6 20.9 54.9 25.4 17.1 4 26.1 7.6 44.1 6-19 7.6-22.8 16.1-44.2 24.5-2.4 1-12.1 12.6 0 8.7 32.2-11 68.6-37.6 65.1-41.3zM14.5 74.1c2.1 11.2 24.8 83.8 47.4 80.7 21-2.8 14.6-38.4 17.1-64.2 2.3-22.9 7.5-21 12.3-24-.3-6.1-3.5-10.4-8.1-10.4-15.3 0-16.4 22.8-16.8 52.6-.3 22.9-2.1 34-6.6 34s-7.9-5.3-14.3-15.8c-8.1-13-20.4-45.8-22.1-54.6-1.1-5.9-2.5-9.1-4.6-11.3S10.7 58.2 3.9 60a89.2 89.2 0 0 1 1.2 14.1C5.1 94.4 0 113.5 0 135c0 14.1 2.1 19.6 7.1 20.3a20.1 20.1 0 0 0 10.3-1.1c-2.1-7.8-2.8-17.7-2.8-25.3-.1-13.4 0-35.1-.1-54.8zm99.9 64.2c15.5 0 28.9-17.3 33.7-26.8 4.9 15.4 6.8 26 13.3 26s15.7-10.8 21-25.6a23.7 23.7 0 0 0 12.4 3.4 23.1 23.1 0 0 0 13.7-4.1q-.1 1.3-.1 2.6c0 14.2 11.5 24.4 26 24.4 17.9 0 33-23.2 35.3-30.6a51.6 51.6 0 0 0 12.7 1.6c-2.4 4.7-9 11.9-9 21.5 0 7.3 6.3 12.7 14.9 12.7 6.6 0 13.3-2.7 16.9-7.1 1.7-2 1-3.8-.8-4.3-4.2 4.4-8.7 5.9-12.5 5.9s-5.3-2.7-5.3-6.8c0-8.7 10-19.1 10-24.6s-14.3-3.7-23.1-6c2.3-3.9 3.4-7.3 3.4-10s-1.7-5.1-4.6-5.1a11.9 11.9 0 0 0-11.9 12.1c0 4 2.2 6.7 5.4 8.4-6.3 10.9-18.5 25.3-30 25.3-5.3 0-9.3-2.9-11.8-8.1 9.6-6.1 15-13.5 15-21.4S234.8 89 227.6 89s-15.7 7-18.2 16.8c-4.4 4.1-7.5 5.5-13.5 5.5-3.8 0-7.1-.9-12.2-4.1a32.7 32.7 0 0 0 1.8-10.1c0-6-2.4-9.2-6.3-9.2s-6.2 4.7-6.2 8.3a18.4 18.4 0 0 0 2 8.1c-1.8 11.6-5.3 24.7-10 24.7-2.6 0-3.6-2.8-3.6-8.8s.6-10.1.6-14.3c0-8.9-2.3-12.1-8.3-12.1a13.6 13.6 0 0 0-10.1 4.4c1 2.4 1.8 4.8 2.7 7.1-6.2 11-18.6 25.9-30.4 25.9-5.3 0-9.3-2.9-11.8-8.1 9.6-6.1 15-13.5 15-21.4S114.9 89 107.7 89C97 89 88.6 99.9 88.6 113.7s11.3 24.6 25.8 24.6zM271 87.7c1.2 0 1.2 1.8 1.2 2.8a23.2 23.2 0 0 1-2.5 8.9c-1.9-1-3-2.4-3-4.4s2.6-7.3 4.3-7.3zm-42.8 7.5c2.6 0 4.4 2.6 4.4 6.2 0 7.3-5.1 13.2-10.3 17.8a38.3 38.3 0 0 1-1.4-10.6c.1-7.2 3.4-13.3 7.3-13.3zm-120 0c2.6 0 4.4 2.6 4.4 6.2 0 7.3-5.1 13.2-10.3 17.8a38.3 38.3 0 0 1-1.4-10.6c.1-7.2 3.4-13.3 7.3-13.3zm196.4 133.6c-2.3 2.1-5.3 5-10.6 5s-9.2-3.2-11.7-8.3c9.8-6.3 15.3-13.7 15.3-21.7s-4.2-12.8-11.4-12.8c-10.4 0-18.7 10.4-19.1 23.7-6.8 12-16.4 25.2-24.5 25.2-3.7 0-5.3-2.7-5.3-6.8 0-8.7 10-19.1 10-24.6s-14.3-3.7-23.1-6c2.3-3.9 3.4-7.3 3.4-10s-1.7-5.1-4.6-5.1a11.9 11.9 0 0 0-11.9 12.1c0 4.2 2.4 6.9 5.9 8.6-5.2 8.3-11.7 11.6-17.4 11.6a10.6 10.6 0 0 1-7.6-2.7 28.1 28.1 0 0 0 .5-5.3c0-10.4-5.3-19.9-16.2-19.9-7.3 0-14.2 4.3-14.9 12.3-5.6.5-9.5 6-9.5 14v1c-6.9 6.8-15.1 12-21.4 12-4.4 0-6.8-3.7-6.8-10.6 0-5.3.9-10.4.9-15.7s-3-8.7-8-8.7c-7.8 0-12.7 7.2-20.1 23.9a60.5 60.5 0 0 0 1-10.8c0-7.5-1.6-14.1-8.1-14.1-9 0-16.1 18.6-24 30.8a87.9 87.9 0 0 0 1.9-17.3c0-10.3-2.5-15.4-7.3-15.4a9.9 9.9 0 0 0-6 2.1c3.6 11.6 1 24.8-.1 38.3a10.3 10.3 0 0 0 7.1 2.8c11.8 0 20.4-33.8 25.6-33.8 1.9 0 2.3 2.8 2.3 8.9A117.1 117.1 0 0 1 87 231a7.6 7.6 0 0 0 6.1 3.3c5.2 0 13.3-29.7 19.3-29.7 1 0 1.8 1.2 1.8 2.7 0 4.7-1.4 10.4-1.4 17.5s3.9 12.8 11.6 12.8c11.2 0 21.3-6.6 28.4-13.4a18.1 18.1 0 0 0 18.4 13.8c9.9-.1 16.6-7 19.5-15.3a15.6 15.6 0 0 0 7.4 2.1c10.8 0 20.6-9.9 21.6-15.4a49.2 49.2 0 0 0 13.5 1.9c-2.4 4.7-9 11.9-9 21.5 0 7.3 6.3 12.7 14.9 12.7 11.8 0 22.6-13.5 28.7-23.9a23.7 23.7 0 0 0 23.2 18.5c7.5 0 15.1-4.6 15.1-9 0-1.2-.1-1.6-1.5-2.3zm-133.5 5.6c-4.8 0-7.3-5.1-7.3-10.1s1.6-7.9 4.6-9.5a20.1 20.1 0 0 0 .3-3.4c0-4.1-1.5-6.4-4.5-7.2 1.8-3.5 4.6-7 8.3-7 5.9 0 8.4 8 8.4 16.4.1 10.2-3.5 20.9-9.8 20.9zm49.4-33.2c-1.9-1-3-2.4-3-4.4s2.6-7.3 4.3-7.3 1.2 1.8 1.2 2.8a23.2 23.2 0 0 1-2.5 8.9zm59.1 11c0-8.3 3.2-15.2 7.2-15.2s4.4 2.6 4.4 6.2c0 7.4-5.2 13.4-10.5 18a32.3 32.3 0 0 1-1-8.9zm15.6 81.2a12.4 12.4 0 0 0-5.9 1.6c0 14.9-3.3 24.6-8.7 24.6-3 0-4.5-3.2-4.5-9.2s.9-10 .9-11.9-2.3-4.5-6.3-4.5a13.8 13.8 0 0 0-4.8.9 52.3 52.3 0 0 1 .3 5.7c0 2.9-.2 5.5-.2 8.7a35.2 35.2 0 0 0 .3 4.9c-4.1 8.4-11.4 20.4-18.1 20.4s-9.6-10.4-9.6-28.5a110.3 110.3 0 0 1 5.6-35c-2.3-2.1-3.9-2.9-5.7-2.9-7.3 0-10.4 9.2-10.4 33.3v5.2c-3.5-4.5-8.2-7.1-13.6-7.1-8.7 0-14.1 6.2-16.1 13.7-5.5 7.5-12.4 14.8-16.4 14.8s-4.8-3.2-4.8-8.4a62.1 62.1 0 0 1 1.8-13.3c-1.6-5.2-8.8-10-15.3-10-11.1 0-21 8.3-24.7 19.4-6.7 9.6-16.7 19.5-26.3 19.5-5.3 0-9.3-2.9-11.8-8.1 9.6-6.1 15-13.5 15-21.4s-4.2-12.7-11.4-12.7c-10.4 0-18.7 10.4-19.1 23.7-6.8 12-16.4 25.2-24.5 25.2-3.7 0-5.3-2.7-5.3-6.8 0-8.7 10-19.2 10-24.6s-14.3-3.7-23.1-6c2.3-3.9 3.4-7.3 3.4-10s-1.7-5.1-4.6-5.1a11.9 11.9 0 0 0-11.9 12.1c0 9.7 12.6 11.4 22.1 11.6-2.4 4.7-9 11.9-9 21.5 0 7.3 6.3 12.7 14.9 12.7 11.8 0 22.6-13.5 28.7-23.9 2.7 11.1 12.9 18.6 25.3 18.6 10.2 0 19.5-7.6 26.1-15.4.5 7.8 5.9 13.4 13.2 13.4s16-7.2 19.4-15c.6 5.4 2.7 8.9 7.9 8.9 6.9 0 14.5-7.5 19.7-14.3-.1 10 5.4 20 17 20 7.7 0 13.5-4.7 16-12.7 2.1 7.5 6.2 13.7 13.9 13.7 10 0 18.9-11.5 23.5-20.3 1.7 3.7 4.3 5.8 7.7 5.8 5.2 0 10.5-4.5 14.6-12.2 0 1 .1 2.6.1 4.3s-.2 4.8-.5 7.7c-13 9.8-24.1 22.2-24.1 36.2 0 6.3 2.9 11.4 8.6 11.4 14.4 0 26.9-28.6 26.9-66.9 0-8.8-.4-13.3-6.2-13.3zm-256.3 9.7c-1.9-1-3-2.4-3-4.4s2.6-7.3 4.3-7.3 1.2 1.8 1.2 2.8a23.2 23.2 0 0 1-2.5 8.9zm59.1 9.2c0-7.3 3.3-13.4 7.2-13.4s4.4 2.6 4.4 6.2c0 7.3-5.1 13.2-10.3 17.8a38.3 38.3 0 0 1-1.3-10.6zm55.2 18.9c-2.1 0-3.6-2.8-3.6-6.4 0-9.7 8.6-24.4 14.6-24.4a4.8 4.8 0 0 1 5.1 4.3c-1 7.1-8.9 26.5-16.1 26.5zm64.4 2c-4.6 0-7.4-5.1-7.4-13.2s3.3-14.2 8.3-14.2 7.5 3.4 9.6 7.4c-1 11.8-5 20-10.5 20zm57.6 35.6c-2.3 0-3.6-2.1-3.6-5.4 0-10.5 7.2-21 17.3-30.2-2.7 16.5-8.8 35.6-13.7 35.6z" fill="#fff"/></svg>