<svg xmlns="http://www.w3.org/2000/svg" viewBox="0 0 132.4 95.1"><path d="M65.3 27.3c7.6.4 14.4-6.2 13.9-13.9C78.7 6.5 73.2 0 65.5 0c-7.7 0-13.7 5.8-13.7 13.4 0 5.9 5.5 13.4 13.5 13.9zm14.6 34.6c.7-4.8 3.1-9.6 6.4-13.4.7-.8 1-1.8.8-2.8-.1-1-.4-2-.6-2.9-2-6.5-7.4-11-12.3-12.5-6.2-1.9-12.9-1.5-18.6 1.5-3.2 1.7-6.5 4.2-8.6 8.3-.7 1.2-1.1 2.6-1.4 4.2-.2 1.1.1 2.2.9 3.1C49.6 50.7 52 55 52.8 60c.5 3.4.7 6.9.6 10.3 0 1.2.9 2.2 2.1 2.2h21.7c1.2 0 2.1-.9 2.1-2.1 0-2.9.1-5.7.6-8.5zM2.1 57c-5.1 9.6.3 28 2.6 34.6C5.2 93 6.5 94 8.1 94h32.4c1.6 0 3-1.1 3.4-2.6 1.5-5.6 4.6-19 2.9-30.6-1.1-7.3-7.2-12.9-12.5-14.7-3.1-1.1-6.4-1.6-9.6-1.6-4.4 0-8.7 1-12.7 3-3.6 1.9-7.4 4.9-9.9 9.5zm128.1 1c-2.5-4.6-6.2-7.6-9.9-9.5-3.9-2-8.3-3-12.7-3-3.2 0-6.5.5-9.6 1.6-5.4 1.8-11.2 8.4-12.3 15.7-1.7 11.4 1.1 24.1 2.6 29.5.4 1.6 1.9 2.7 3.6 2.7h32.2c1.6 0 3-1 3.5-2.5 2.4-6.6 7.7-24.9 2.6-34.5zM23.4 42.2c3.1 0 6.1-1.1 8.6-2.9 4.5-3.2 7.6-8.4 7.8-13.6.3-7.6-7.4-16.5-16.5-16.5C13.5 9.3 7.5 18 7 25.7c-.5 6.9 2.7 11.8 7.5 14.3 2.6 1.4 5.7 2.2 8.9 2.2zm91.9-1.8c5.4-2.9 9.3-8.9 9.6-14.6.3-7.6-7.4-16.5-16.5-16.5-9.9 0-16 8.8-16.5 16.5-.5 7.2 3 12.1 8.1 14.6 2.5 1.2 5.3 1.8 8.3 1.8 2.5 0 4.9-.7 7-1.8z" fill="#99906D"/></svg>