<svg xmlns="http://www.w3.org/2000/svg" viewBox="0 0 129.5 69.9"><g fill="#99906D"><path d="M67.4.1C55.8-2 3.6 20.2.1 22.2s55.8 21.7 63.5 21.5c6.2-.2 44.1-11.6 59.4-18.1.9 9.7.3 30.5-6.4 34.1 0 0-2.6-3.1-6.6 0-1.5 1.2-2.7 6.2-5.1 8.6-.5.5-.2 1.4.5 1.4 3.1.4 8.8.7 12-1.7 4.6-3.5 1.1-4.6 1.4-5.5.3-.8 9.6-13.5 6.8-38.2 2.1-1 3.4-1.8 3.6-2.4C131.1 17.9 71.9 1 67.4.1z"/><path d="M95.7 41c-3.7-1.4-24.9 7.2-32.1 8.6-7.2 1.4-25.4-9.2-29.1-8.6-3.7.6-6.3 1.4-3.1 8.6 3.1 7.2 25.5 16.3 33.4 17.4 8 1.1 25-11.6 28.8-14 3.9-2.5 7.9-9.7 2.1-12z"/></g></svg>